<svg id="visual" viewBox="0 0 900 100" width="900" height="100" xmlns="http://www.w3.org/2000/svg" xmlns:xlink="http://www.w3.org/1999/xlink" version="1.1"><rect x="0" y="0" width="900" height="100" fill="#001220"></rect><path d="M0 34L11.5 34.8C23 35.7 46 37.3 69 39.2C92 41 115 43 138.2 39.8C161.3 36.7 184.7 28.3 207.8 23.3C231 18.3 254 16.7 277 19C300 21.3 323 27.7 346 28.2C369 28.7 392 23.3 415.2 27C438.3 30.7 461.7 43.3 484.8 43.2C508 43 531 30 554 29.5C577 29 600 41 623 41.8C646 42.7 669 32.3 692.2 28.3C715.3 24.3 738.7 26.7 761.8 28.2C785 29.7 808 30.3 831 28.2C854 26 877 21 888.5 18.5L900 16L900 101L888.5 101C877 101 854 101 831 101C808 101 785 101 761.8 101C738.7 101 715.3 101 692.2 101C669 101 646 101 623 101C600 101 577 101 554 101C531 101 508 101 484.8 101C461.7 101 438.3 101 415.2 101C392 101 369 101 346 101C323 101 300 101 277 101C254 101 231 101 207.8 101C184.7 101 161.3 101 138.2 101C115 101 92 101 69 101C46 101 23 101 11.5 101L0 101Z" fill="#003a62"></path><path d="M0 58L11.5 53C23 48 46 38 69 39.8C92 41.7 115 55.3 138.2 54.7C161.3 54 184.7 39 207.8 35C231 31 254 38 277 39.3C300 40.7 323 36.3 346 39.3C369 42.3 392 52.7 415.2 56.5C438.3 60.3 461.7 57.7 484.8 58.8C508 60 531 65 554 66.7C577 68.3 600 66.7 623 60.5C646 54.3 669 43.7 692.2 44.5C715.3 45.3 738.7 57.7 761.8 61.5C785 65.3 808 60.7 831 54C854 47.3 877 38.7 888.5 34.3L900 30L900 101L888.5 101C877 101 854 101 831 101C808 101 785 101 761.8 101C738.7 101 715.3 101 692.2 101C669 101 646 101 623 101C600 101 577 101 554 101C531 101 508 101 484.8 101C461.7 101 438.3 101 415.2 101C392 101 369 101 346 101C323 101 300 101 277 101C254 101 231 101 207.8 101C184.7 101 161.3 101 138.2 101C115 101 92 101 69 101C46 101 23 101 11.5 101L0 101Z" fill="#003050"></path><path d="M0 56L11.5 52.2C23 48.3 46 40.7 69 38.7C92 36.7 115 40.3 138.2 41.2C161.3 42 184.7 40 207.8 38.5C231 37 254 36 277 35.8C300 35.7 323 36.3 346 39.3C369 42.3 392 47.7 415.2 48.3C438.3 49 461.7 45 484.8 47.5C508 50 531 59 554 63.7C577 68.3 600 68.7 623 64C646 59.3 669 49.7 692.2 48.2C715.3 46.7 738.7 53.3 761.8 54C785 54.7 808 49.3 831 50.2C854 51 877 58 888.5 61.5L900 65L900 101L888.5 101C877 101 854 101 831 101C808 101 785 101 761.8 101C738.7 101 715.3 101 692.2 101C669 101 646 101 623 101C600 101 577 101 554 101C531 101 508 101 484.8 101C461.7 101 438.3 101 415.2 101C392 101 369 101 346 101C323 101 300 101 277 101C254 101 231 101 207.8 101C184.7 101 161.3 101 138.2 101C115 101 92 101 69 101C46 101 23 101 11.5 101L0 101Z" fill="#012640"></path><path d="M0 61L11.5 59.7C23 58.3 46 55.7 69 52.5C92 49.3 115 45.7 138.2 45.8C161.3 46 184.7 50 207.8 54.8C231 59.7 254 65.3 277 65.5C300 65.7 323 60.3 346 55.7C369 51 392 47 415.2 45.7C438.3 44.3 461.7 45.7 484.8 47.8C508 50 531 53 554 53.2C577 53.3 600 50.7 623 53.5C646 56.3 669 64.7 692.2 64.5C715.3 64.3 738.7 55.7 761.8 55.8C785 56 808 65 831 69.3C854 73.7 877 73.3 888.5 73.2L900 73L900 101L888.5 101C877 101 854 101 831 101C808 101 785 101 761.8 101C738.7 101 715.3 101 692.2 101C669 101 646 101 623 101C600 101 577 101 554 101C531 101 508 101 484.8 101C461.7 101 438.3 101 415.2 101C392 101 369 101 346 101C323 101 300 101 277 101C254 101 231 101 207.8 101C184.7 101 161.3 101 138.2 101C115 101 92 101 69 101C46 101 23 101 11.5 101L0 101Z" fill="#031c2f"></path><path d="M0 76L11.5 75.3C23 74.7 46 73.3 69 69.2C92 65 115 58 138.2 54.8C161.3 51.7 184.7 52.3 207.8 55.5C231 58.7 254 64.3 277 63.5C300 62.7 323 55.3 346 57C369 58.7 392 69.3 415.2 71.5C438.3 73.7 461.7 67.3 484.8 65C508 62.7 531 64.3 554 62.7C577 61 600 56 623 56.8C646 57.7 669 64.3 692.2 67.2C715.3 70 738.7 69 761.8 70.5C785 72 808 76 831 75C854 74 877 68 888.5 65L900 62L900 101L888.5 101C877 101 854 101 831 101C808 101 785 101 761.8 101C738.7 101 715.3 101 692.2 101C669 101 646 101 623 101C600 101 577 101 554 101C531 101 508 101 484.8 101C461.7 101 438.3 101 415.2 101C392 101 369 101 346 101C323 101 300 101 277 101C254 101 231 101 207.8 101C184.7 101 161.3 101 138.2 101C115 101 92 101 69 101C46 101 23 101 11.5 101L0 101Z" fill="#001220"></path><path d="M0 83L11.5 80C23 77 46 71 69 70.2C92 69.3 115 73.7 138.2 76C161.3 78.3 184.7 78.7 207.8 75.7C231 72.7 254 66.3 277 63.3C300 60.3 323 60.7 346 62.3C369 64 392 67 415.2 69.2C438.3 71.3 461.7 72.7 484.8 70.7C508 68.7 531 63.3 554 61.5C577 59.7 600 61.3 623 65.3C646 69.3 669 75.7 692.2 78.2C715.3 80.7 738.7 79.3 761.8 78C785 76.7 808 75.3 831 71.8C854 68.3 877 62.7 888.5 59.8L900 57L900 101L888.5 101C877 101 854 101 831 101C808 101 785 101 761.8 101C738.7 101 715.3 101 692.2 101C669 101 646 101 623 101C600 101 577 101 554 101C531 101 508 101 484.8 101C461.7 101 438.3 101 415.2 101C392 101 369 101 346 101C323 101 300 101 277 101C254 101 231 101 207.8 101C184.7 101 161.3 101 138.2 101C115 101 92 101 69 101C46 101 23 101 11.5 101L0 101Z" fill="#00111e"></path><path d="M0 68L11.5 67.5C23 67 46 66 69 68.2C92 70.3 115 75.7 138.2 76.2C161.3 76.7 184.7 72.3 207.8 71C231 69.7 254 71.3 277 71.8C300 72.3 323 71.7 346 72C369 72.3 392 73.7 415.2 72.8C438.3 72 461.7 69 484.8 70.7C508 72.3 531 78.7 554 80.2C577 81.7 600 78.3 623 77.2C646 76 669 77 692.2 77C715.3 77 738.7 76 761.8 76.2C785 76.3 808 77.7 831 76.5C854 75.3 877 71.7 888.5 69.8L900 68L900 101L888.5 101C877 101 854 101 831 101C808 101 785 101 761.8 101C738.7 101 715.3 101 692.2 101C669 101 646 101 623 101C600 101 577 101 554 101C531 101 508 101 484.8 101C461.7 101 438.3 101 415.2 101C392 101 369 101 346 101C323 101 300 101 277 101C254 101 231 101 207.8 101C184.7 101 161.3 101 138.2 101C115 101 92 101 69 101C46 101 23 101 11.5 101L0 101Z" fill="#00111c"></path><path d="M0 84L11.5 85.2C23 86.3 46 88.7 69 87.7C92 86.7 115 82.3 138.2 80.5C161.3 78.7 184.7 79.3 207.8 81.3C231 83.3 254 86.7 277 88.3C300 90 323 90 346 88.8C369 87.7 392 85.3 415.2 85.8C438.3 86.3 461.7 89.7 484.8 90.7C508 91.7 531 90.3 554 88.5C577 86.7 600 84.3 623 83.2C646 82 669 82 692.2 82.7C715.3 83.3 738.7 84.7 761.8 84C785 83.3 808 80.7 831 80.5C854 80.3 877 82.7 888.5 83.8L900 85L900 101L888.5 101C877 101 854 101 831 101C808 101 785 101 761.8 101C738.7 101 715.3 101 692.2 101C669 101 646 101 623 101C600 101 577 101 554 101C531 101 508 101 484.8 101C461.7 101 438.3 101 415.2 101C392 101 369 101 346 101C323 101 300 101 277 101C254 101 231 101 207.8 101C184.7 101 161.3 101 138.2 101C115 101 92 101 69 101C46 101 23 101 11.5 101L0 101Z" fill="#00101b"></path><path d="M0 85L11.5 85.3C23 85.7 46 86.3 69 86.8C92 87.3 115 87.7 138.2 87.5C161.3 87.3 184.7 86.7 207.8 86.8C231 87 254 88 277 88.5C300 89 323 89 346 90C369 91 392 93 415.2 93C438.3 93 461.7 91 484.8 89.5C508 88 531 87 554 86C577 85 600 84 623 83.5C646 83 669 83 692.2 83C715.3 83 738.7 83 761.8 83.5C785 84 808 85 831 87C854 89 877 92 888.5 93.5L900 95L900 101L888.5 101C877 101 854 101 831 101C808 101 785 101 761.8 101C738.7 101 715.3 101 692.2 101C669 101 646 101 623 101C600 101 577 101 554 101C531 101 508 101 484.8 101C461.7 101 438.3 101 415.2 101C392 101 369 101 346 101C323 101 300 101 277 101C254 101 231 101 207.8 101C184.7 101 161.3 101 138.2 101C115 101 92 101 69 101C46 101 23 101 11.5 101L0 101Z" fill="#000f19"></path></svg>