<svg id="visual" viewBox="0 0 400 100"
width="400" height="100" 
xmlns="http://www.w3.org/2000/svg"
xmlns:xlink="http://www.w3.org/1999/xlink" version="1.1"><rect x="0" y="0" width="400" height="100" 
fill="#00a082"></rect><defs><linearGradient id="grad1_0" x1="75%" y1="0%" x2="100%" y2="100%"><stop offset="-30%" 
stop-color="#00a082" stop-opacity="1"></stop><stop offset="130%" 
stop-color="#00a082" stop-opacity="1"></stop></linearGradient></defs><defs><linearGradient id="grad2_0" x1="0%" y1="0%" x2="25%" y2="100%"><stop offset="-30%" 
stop-color="#00a082" stop-opacity="1"></stop><stop offset="130%" stop-color="#00a082" stop-opacity="1"></stop></linearGradient></defs><g transform="translate(400, 0)"><path d="M0 95C-11.7 91.7 -23.5 88.4 -34.8 84.1C-46.2 79.8 -57.2 74.4 -66.5 66.5C-75.7 58.5 -83.3 47.9 -87.8 36.4C-92.2 24.8 -93.6 12.4 -95 0L0 0Z" 
fill="#FBAE3C"></path></g><g transform="translate(0, 100)"><path d="M0 -95C11.5 -90.6 23 -86.2 33.7 -81.3C44.3 -76.4 54.1 -70.9 63.6 -63.6C73.2 -56.4 82.6 -47.3 87.8 -36.4C93 -25.4 94 -12.7 95 0L0 0Z" 
fill="#FBAE3C"></path></g></svg>