<svg id="visual" viewBox="0 0 900 100" width="900" height="100" xmlns="http://www.w3.org/2000/svg" xmlns:xlink="http://www.w3.org/1999/xlink" version="1.1"><path d="M0 41L13.7 41.2C27.3 41.3 54.7 41.7 82 37.5C109.3 33.3 136.7 24.7 163.8 22C191 19.3 218 22.7 245.2 24.7C272.3 26.7 299.7 27.3 327 27.2C354.3 27 381.7 26 409 25.2C436.3 24.3 463.7 23.7 491 27.3C518.3 31 545.7 39 573 39C600.3 39 627.7 31 654.8 30.2C682 29.3 709 35.7 736.2 36C763.3 36.3 790.7 30.7 818 26.8C845.3 23 872.7 21 886.3 20L900 19L900 0L886.3 0C872.7 0 845.3 0 818 0C790.7 0 763.3 0 736.2 0C709 0 682 0 654.8 0C627.7 0 600.3 0 573 0C545.7 0 518.3 0 491 0C463.7 0 436.3 0 409 0C381.7 0 354.3 0 327 0C299.7 0 272.3 0 245.2 0C218 0 191 0 163.8 0C136.7 0 109.3 0 82 0C54.7 0 27.3 0 13.7 0L0 0Z" fill="#ffffff"></path><path d="M0 59L13.7 59.3C27.3 59.7 54.7 60.3 82 57.3C109.3 54.3 136.7 47.7 163.8 44.3C191 41 218 41 245.2 42.2C272.3 43.3 299.7 45.7 327 44.5C354.3 43.3 381.7 38.7 409 37.7C436.3 36.7 463.7 39.3 491 43.3C518.3 47.3 545.7 52.7 573 53.2C600.3 53.7 627.7 49.3 654.8 50.3C682 51.3 709 57.7 736.2 56.3C763.3 55 790.7 46 818 40.8C845.3 35.7 872.7 34.3 886.3 33.7L900 33L900 17L886.3 18C872.7 19 845.3 21 818 24.8C790.7 28.7 763.3 34.3 736.2 34C709 33.7 682 27.3 654.8 28.2C627.7 29 600.3 37 573 37C545.7 37 518.3 29 491 25.3C463.7 21.7 436.3 22.3 409 23.2C381.7 24 354.3 25 327 25.2C299.7 25.3 272.3 24.7 245.2 22.7C218 20.7 191 17.3 163.8 20C136.7 22.7 109.3 31.3 82 35.5C54.7 39.7 27.3 39.3 13.7 39.2L0 39Z" fill="#fff5d1"></path><path d="M0 72L13.7 72.8C27.3 73.7 54.7 75.3 82 76.7C109.3 78 136.7 79 163.8 78.5C191 78 218 76 245.2 75.5C272.3 75 299.7 76 327 74.8C354.3 73.7 381.7 70.3 409 69.7C436.3 69 463.7 71 491 73C518.3 75 545.7 77 573 77.3C600.3 77.7 627.7 76.3 654.8 76.7C682 77 709 79 736.2 78.3C763.3 77.7 790.7 74.3 818 74C845.3 73.7 872.7 76.3 886.3 77.7L900 79L900 31L886.3 31.7C872.7 32.3 845.3 33.7 818 38.8C790.7 44 763.3 53 736.2 54.3C709 55.7 682 49.3 654.8 48.3C627.7 47.3 600.3 51.7 573 51.2C545.7 50.7 518.3 45.3 491 41.3C463.7 37.3 436.3 34.7 409 35.7C381.7 36.7 354.3 41.3 327 42.5C299.7 43.7 272.3 41.3 245.2 40.2C218 39 191 39 163.8 42.3C136.7 45.7 109.3 52.3 82 55.3C54.7 58.3 27.3 57.7 13.7 57.3L0 57Z" fill="#feeca3"></path><path d="M0 84L13.7 85.5C27.3 87 54.7 90 82 90.8C109.3 91.7 136.7 90.3 163.8 89.7C191 89 218 89 245.2 89.2C272.3 89.3 299.7 89.7 327 88.8C354.3 88 381.7 86 409 84.7C436.3 83.3 463.7 82.7 491 83.8C518.3 85 545.7 88 573 89.5C600.3 91 627.7 91 654.8 91.5C682 92 709 93 736.2 91.3C763.3 89.7 790.7 85.3 818 85.2C845.3 85 872.7 89 886.3 91L900 93L900 77L886.3 75.7C872.7 74.3 845.3 71.7 818 72C790.7 72.3 763.3 75.7 736.2 76.3C709 77 682 75 654.8 74.7C627.7 74.3 600.3 75.7 573 75.3C545.7 75 518.3 73 491 71C463.7 69 436.3 67 409 67.7C381.7 68.3 354.3 71.7 327 72.8C299.7 74 272.3 73 245.2 73.5C218 74 191 76 163.8 76.5C136.7 77 109.3 76 82 74.7C54.7 73.3 27.3 71.7 13.7 70.8L0 70Z" fill="#f9e374"></path><path d="M0 101L13.7 101C27.3 101 54.7 101 82 101C109.3 101 136.7 101 163.8 101C191 101 218 101 245.2 101C272.3 101 299.7 101 327 101C354.3 101 381.7 101 409 101C436.3 101 463.7 101 491 101C518.3 101 545.7 101 573 101C600.3 101 627.7 101 654.8 101C682 101 709 101 736.2 101C763.3 101 790.7 101 818 101C845.3 101 872.7 101 886.3 101L900 101L900 91L886.3 89C872.7 87 845.3 83 818 83.2C790.7 83.3 763.3 87.7 736.2 89.3C709 91 682 90 654.8 89.5C627.7 89 600.3 89 573 87.5C545.7 86 518.3 83 491 81.8C463.7 80.7 436.3 81.3 409 82.7C381.7 84 354.3 86 327 86.8C299.7 87.7 272.3 87.3 245.2 87.2C218 87 191 87 163.8 87.7C136.7 88.3 109.3 89.7 82 88.8C54.7 88 27.3 85 13.7 83.5L0 82Z" fill="#f2da3d"></path></svg>