<svg id="visual" viewBox="0 0 900 100" width="900" height="100" xmlns="http://www.w3.org/2000/svg" xmlns:xlink="http://www.w3.org/1999/xlink" version="1.1"><path d="M0 17L13.7 16.7C27.3 16.3 54.7 15.7 82 14.8C109.3 14 136.7 13 163.8 11.8C191 10.7 218 9.3 245.2 10.2C272.3 11 299.7 14 327 16C354.3 18 381.7 19 409 17.8C436.3 16.7 463.7 13.3 491 13.5C518.3 13.7 545.7 17.3 573 19.2C600.3 21 627.7 21 654.8 20.5C682 20 709 19 736.2 16.7C763.3 14.3 790.7 10.7 818 10.5C845.3 10.3 872.7 13.7 886.3 15.3L900 17L900 0L886.3 0C872.7 0 845.3 0 818 0C790.7 0 763.3 0 736.2 0C709 0 682 0 654.8 0C627.7 0 600.3 0 573 0C545.7 0 518.3 0 491 0C463.7 0 436.3 0 409 0C381.7 0 354.3 0 327 0C299.7 0 272.3 0 245.2 0C218 0 191 0 163.8 0C136.7 0 109.3 0 82 0C54.7 0 27.3 0 13.7 0L0 0Z" fill="#ef3f24"></path><path d="M0 41L13.7 43.7C27.3 46.3 54.7 51.7 82 54.3C109.3 57 136.7 57 163.8 54.5C191 52 218 47 245.2 43C272.3 39 299.7 36 327 38.7C354.3 41.3 381.7 49.7 409 48.3C436.3 47 463.7 36 491 37C518.3 38 545.7 51 573 54.2C600.3 57.3 627.7 50.7 654.8 45.3C682 40 709 36 736.2 33.5C763.3 31 790.7 30 818 33.2C845.3 36.3 872.7 43.7 886.3 47.3L900 51L900 15L886.3 13.3C872.7 11.7 845.3 8.3 818 8.5C790.7 8.7 763.3 12.3 736.2 14.7C709 17 682 18 654.8 18.5C627.7 19 600.3 19 573 17.2C545.7 15.3 518.3 11.7 491 11.5C463.7 11.3 436.3 14.7 409 15.8C381.7 17 354.3 16 327 14C299.7 12 272.3 9 245.2 8.2C218 7.3 191 8.7 163.8 9.8C136.7 11 109.3 12 82 12.8C54.7 13.7 27.3 14.3 13.7 14.7L0 15Z" fill="#c00e5b"></path><path d="M0 74L13.7 74.7C27.3 75.3 54.7 76.7 82 77.5C109.3 78.3 136.7 78.7 163.8 77.2C191 75.7 218 72.3 245.2 70.2C272.3 68 299.7 67 327 68.8C354.3 70.7 381.7 75.3 409 75C436.3 74.7 463.7 69.3 491 69.2C518.3 69 545.7 74 573 75.3C600.3 76.7 627.7 74.3 654.8 71.8C682 69.3 709 66.7 736.2 64.8C763.3 63 790.7 62 818 63C845.3 64 872.7 67 886.3 68.5L900 70L900 49L886.3 45.3C872.7 41.7 845.3 34.3 818 31.2C790.7 28 763.3 29 736.2 31.5C709 34 682 38 654.8 43.3C627.7 48.7 600.3 55.3 573 52.2C545.7 49 518.3 36 491 35C463.7 34 436.3 45 409 46.3C381.7 47.7 354.3 39.3 327 36.7C299.7 34 272.3 37 245.2 41C218 45 191 50 163.8 52.5C136.7 55 109.3 55 82 52.3C54.7 49.7 27.3 44.3 13.7 41.7L0 39Z" fill="#73256a"></path><path d="M0 95L13.7 93.5C27.3 92 54.7 89 82 88.5C109.3 88 136.7 90 163.8 90.8C191 91.7 218 91.3 245.2 91C272.3 90.7 299.7 90.3 327 90C354.3 89.7 381.7 89.3 409 88.3C436.3 87.3 463.7 85.7 491 86.5C518.3 87.3 545.7 90.7 573 91.5C600.3 92.3 627.7 90.7 654.8 89.7C682 88.7 709 88.3 736.2 87.5C763.3 86.7 790.7 85.3 818 86.3C845.3 87.3 872.7 90.7 886.3 92.3L900 94L900 68L886.3 66.5C872.7 65 845.3 62 818 61C790.7 60 763.3 61 736.2 62.8C709 64.7 682 67.3 654.8 69.8C627.7 72.3 600.3 74.7 573 73.3C545.7 72 518.3 67 491 67.2C463.7 67.3 436.3 72.7 409 73C381.7 73.3 354.3 68.7 327 66.8C299.7 65 272.3 66 245.2 68.2C218 70.3 191 73.7 163.8 75.2C136.7 76.7 109.3 76.3 82 75.5C54.7 74.7 27.3 73.3 13.7 72.7L0 72Z" fill="#252551"></path><path d="M0 101L13.7 101C27.3 101 54.7 101 82 101C109.3 101 136.7 101 163.8 101C191 101 218 101 245.2 101C272.3 101 299.7 101 327 101C354.3 101 381.7 101 409 101C436.3 101 463.7 101 491 101C518.3 101 545.7 101 573 101C600.3 101 627.7 101 654.8 101C682 101 709 101 736.2 101C763.3 101 790.7 101 818 101C845.3 101 872.7 101 886.3 101L900 101L900 92L886.3 90.3C872.7 88.7 845.3 85.3 818 84.3C790.7 83.3 763.3 84.7 736.2 85.5C709 86.3 682 86.7 654.8 87.7C627.7 88.7 600.3 90.3 573 89.5C545.7 88.7 518.3 85.3 491 84.5C463.7 83.7 436.3 85.3 409 86.3C381.7 87.3 354.3 87.7 327 88C299.7 88.3 272.3 88.7 245.2 89C218 89.3 191 89.7 163.8 88.8C136.7 88 109.3 86 82 86.5C54.7 87 27.3 90 13.7 91.5L0 93Z" fill="#001220"></path></svg>