<svg id="visual" viewBox="0 0 900 1400" width="900" height="1400" xmlns="http://www.w3.org/2000/svg" xmlns:xlink="http://www.w3.org/1999/xlink" version="1.1"><path d="M395 1400L462.5 1322.2C530 1244.3 665 1088.7 696.5 933.2C728 777.7 656 622.3 650 466.8C644 311.3 704 155.7 734 77.8L764 0L900 0L900 77.8C900 155.7 900 311.3 900 466.8C900 622.3 900 777.7 900 933.2C900 1088.7 900 1244.3 900 1322.2L900 1400Z" fill="#009473"></path><path d="M359 1400L360.5 1322.2C362 1244.3 365 1088.7 344 933.2C323 777.7 278 622.3 248 466.8C218 311.3 203 155.7 195.5 77.8L188 0L765 0L735 77.8C705 155.7 645 311.3 651 466.8C657 622.3 729 777.7 697.5 933.2C666 1088.7 531 1244.3 463.5 1322.2L396 1400Z" fill="#96cab7"></path><path d="M0 1400L0 1322.2C0 1244.3 0 1088.7 0 933.2C0 777.7 0 622.3 0 466.8C0 311.3 0 155.7 0 77.8L0 0L189 0L196.5 77.8C204 155.7 219 311.3 249 466.8C279 622.3 324 777.7 345 933.2C366 1088.7 363 1244.3 361.5 1322.2L360 1400Z" fill="#ffffff"></path></svg>