<svg id="visual" viewBox="0 0 400 20" width="400" height="20" xmlns="http://www.w3.org/2000/svg" xmlns:xlink="http://www.w3.org/1999/xlink" version="1.1"><rect x="0" y="0" width="400" height="20" fill="#FFFFFF"></rect><path d="M0 13L2.8 13.5C5.7 14 11.3 15 16.8 15.8C22.3 16.7 27.7 17.3 33.2 17.3C38.7 17.3 44.3 16.7 50 15C55.7 13.3 61.3 10.7 66.8 10.3C72.3 10 77.7 12 83.2 11.5C88.7 11 94.3 8 100 8C105.7 8 111.3 11 116.8 12.2C122.3 13.3 127.7 12.7 133.2 11C138.7 9.3 144.3 6.7 150 5.7C155.7 4.7 161.3 5.3 166.8 6C172.3 6.7 177.7 7.3 183.2 8C188.7 8.7 194.3 9.3 200 10.7C205.7 12 211.3 14 216.8 15.2C222.3 16.3 227.7 16.7 233.2 15.2C238.7 13.7 244.3 10.3 250 8C255.7 5.7 261.3 4.3 266.8 3.5C272.3 2.7 277.7 2.3 283.2 4.8C288.7 7.3 294.3 12.7 300 13.5C305.7 14.3 311.3 10.7 316.8 9C322.3 7.3 327.7 7.7 333.2 9.5C338.7 11.3 344.3 14.7 350 13.7C355.7 12.7 361.3 7.3 366.8 6.2C372.3 5 377.7 8 383.2 10C388.7 12 394.3 13 397.2 13.5L400 14L400 21L397.2 21C394.3 21 388.7 21 383.2 21C377.7 21 372.3 21 366.8 21C361.3 21 355.7 21 350 21C344.3 21 338.7 21 333.2 21C327.7 21 322.3 21 316.8 21C311.3 21 305.7 21 300 21C294.3 21 288.7 21 283.2 21C277.7 21 272.3 21 266.8 21C261.3 21 255.7 21 250 21C244.3 21 238.7 21 233.2 21C227.7 21 222.3 21 216.8 21C211.3 21 205.7 21 200 21C194.3 21 188.7 21 183.2 21C177.7 21 172.3 21 166.8 21C161.3 21 155.7 21 150 21C144.3 21 138.7 21 133.2 21C127.7 21 122.3 21 116.8 21C111.3 21 105.7 21 100 21C94.3 21 88.7 21 83.2 21C77.7 21 72.3 21 66.8 21C61.3 21 55.7 21 50 21C44.3 21 38.7 21 33.2 21C27.7 21 22.3 21 16.8 21C11.3 21 5.7 21 2.8 21L0 21Z" fill="#00a082" stroke-linecap="round" stroke-linejoin="miter"></path></svg>