<svg id="visual" 
viewBox="0 0 900 100" 
width="900" height="100"
xmlns="http://www.w3.org/2000/svg" 
xmlns:xlink="http://www.w3.org/1999/xlink" version="1.1"><rect x="0" y="0" width="900" height="100" 
fill="#37cc70"></rect><path d="M0 66L21.5 69.3C43 72.7 86 79.3 128.8 81.7C171.7 84 214.3 82 257.2 78.2C300 74.3 343 68.7 385.8 67.3C428.7 66 471.3 69 514.2 72.2C557 75.3 600 78.7 642.8 78.7C685.7 78.7 728.3 75.3 771.2 72C814 68.7 857 65.3 878.5 63.7L900 62L900 101L878.5 101C857 101 814 101 771.2 101C728.3 101 685.7 101 642.8 101C600 101 557 101 514.2 101C471.3 101 428.7 101 385.8 101C343 101 300 101 257.2 101C214.3 101 171.7 101 128.8 101C86 101 43 101 21.5 101L0 101Z" 
fill="#ffffff" stroke-linecap="round" stroke-linejoin="miter"></path></svg>