<svg id="visual" viewBox="0 0 900 1400" width="900" height="1400" xmlns="http://www.w3.org/2000/svg" xmlns:xlink="http://www.w3.org/1999/xlink" version="1.1"><rect x="0" y="0" width="900" height="1400" fill="#ffffff"></rect><path d="M754 1400L664.5 1353.3C575 1306.7 396 1213.3 353.5 1120C311 1026.7 405 933.3 495.3 840C585.7 746.7 672.3 653.3 732.5 560C792.7 466.7 826.3 373.3 830.5 280C834.7 186.7 809.3 93.3 796.7 46.7L784 0L900 0L900 46.7C900 93.3 900 186.7 900 280C900 373.3 900 466.7 900 560C900 653.3 900 746.7 900 840C900 933.3 900 1026.7 900 1120C900 1213.3 900 1306.7 900 1353.3L900 1400Z" fill="#009473" stroke-linecap="round" stroke-linejoin="miter"></path></svg>